<?xml version="1.0" encoding="UTF-8"?>
<svg width="390" height="844" viewBox="0 0 390 844" xmlns="http://www.w3.org/2000/svg">
  <defs>
    <linearGradient id="brand" x1="0" y1="0" x2="1" y2="1">
      <stop offset="0" stop-color="#7C3AED"/>
      <stop offset="1" stop-color="#4338CA"/>
    </linearGradient>
    <clipPath id="screen"><rect x="10" y="10" width="370" height="824" rx="46"/></clipPath>
  </defs>
  <rect x="2" y="2" width="386" height="840" rx="54" fill="#0b0b12"/>
  <rect x="10" y="10" width="370" height="824" rx="46" fill="#ffffff"/>
  <g clip-path="url(#screen)">
    
  <rect x="0" y="0" width="390" height="844" fill="#f4f3fa"/>
  <rect x="0" y="0" width="390" height="120" fill="url(#brand)"/>
  <text x="26" y="96" font-family="Arial" font-size="26" font-weight="800" fill="#ffffff">My Cards</text>

  
    <rect x="26" y="150" width="338" height="76" rx="16" fill="#ffffff" stroke="#e7e4f0"/>
    <rect x="40" y="164" width="48" height="48" rx="12" fill="#E4002B"/>
    <text x="64" y="196" font-family="Arial" font-size="22" font-weight="800" fill="#ffffff" text-anchor="middle">H</text>
    <text x="104" y="184" font-family="Arial" font-size="17" font-weight="700" fill="#1e1b2e">H&amp;M</text>
    <text x="104" y="206" font-family="Arial" font-size="13" fill="#8b869c">Fashion</text>
    <rect x="240" y="180" width="3" height="20" fill="#c9c6d6"/><rect x="246" y="180" width="2" height="20" fill="#c9c6d6"/><rect x="251" y="180" width="5" height="20" fill="#c9c6d6"/><rect x="259" y="180" width="2" height="20" fill="#c9c6d6"/><rect x="264" y="180" width="4" height="20" fill="#c9c6d6"/><rect x="271" y="180" width="2" height="20" fill="#c9c6d6"/><rect x="276" y="180" width="6" height="20" fill="#c9c6d6"/><rect x="285" y="180" width="3" height="20" fill="#c9c6d6"/><rect x="291" y="180" width="2" height="20" fill="#c9c6d6"/><rect x="296" y="180" width="5" height="20" fill="#c9c6d6"/><rect x="304" y="180" width="2" height="20" fill="#c9c6d6"/><rect x="309" y="180" width="3" height="20" fill="#c9c6d6"/><rect x="315" y="180" width="6" height="20" fill="#c9c6d6"/><rect x="324" y="180" width="2" height="20" fill="#c9c6d6"/><rect x="329" y="180" width="4" height="20" fill="#c9c6d6"/><rect x="336" y="180" width="2" height="20" fill="#c9c6d6"/>
  
    <rect x="26" y="238" width="338" height="76" rx="16" fill="#ffffff" stroke="#e7e4f0"/>
    <rect x="40" y="252" width="48" height="48" rx="12" fill="#0B57A4"/>
    <text x="64" y="284" font-family="Arial" font-size="22" font-weight="800" fill="#ffffff" text-anchor="middle">T</text>
    <text x="104" y="272" font-family="Arial" font-size="17" font-weight="700" fill="#1e1b2e">Tesco Clubcard</text>
    <text x="104" y="294" font-family="Arial" font-size="13" fill="#8b869c">Groceries</text>
    <rect x="240" y="268" width="3" height="20" fill="#c9c6d6"/><rect x="246" y="268" width="2" height="20" fill="#c9c6d6"/><rect x="251" y="268" width="5" height="20" fill="#c9c6d6"/><rect x="259" y="268" width="2" height="20" fill="#c9c6d6"/><rect x="264" y="268" width="4" height="20" fill="#c9c6d6"/><rect x="271" y="268" width="2" height="20" fill="#c9c6d6"/><rect x="276" y="268" width="6" height="20" fill="#c9c6d6"/><rect x="285" y="268" width="3" height="20" fill="#c9c6d6"/><rect x="291" y="268" width="2" height="20" fill="#c9c6d6"/><rect x="296" y="268" width="5" height="20" fill="#c9c6d6"/><rect x="304" y="268" width="2" height="20" fill="#c9c6d6"/><rect x="309" y="268" width="3" height="20" fill="#c9c6d6"/><rect x="315" y="268" width="6" height="20" fill="#c9c6d6"/><rect x="324" y="268" width="2" height="20" fill="#c9c6d6"/><rect x="329" y="268" width="4" height="20" fill="#c9c6d6"/><rect x="336" y="268" width="2" height="20" fill="#c9c6d6"/>
  
    <rect x="26" y="326" width="338" height="76" rx="16" fill="#ffffff" stroke="#e7e4f0"/>
    <rect x="40" y="340" width="48" height="48" rx="12" fill="#0046AA"/>
    <text x="64" y="372" font-family="Arial" font-size="22" font-weight="800" fill="#ffffff" text-anchor="middle">P</text>
    <text x="104" y="360" font-family="Arial" font-size="17" font-weight="700" fill="#1e1b2e">Payback</text>
    <text x="104" y="382" font-family="Arial" font-size="13" fill="#8b869c">Rewards</text>
    <rect x="240" y="356" width="3" height="20" fill="#c9c6d6"/><rect x="246" y="356" width="2" height="20" fill="#c9c6d6"/><rect x="251" y="356" width="5" height="20" fill="#c9c6d6"/><rect x="259" y="356" width="2" height="20" fill="#c9c6d6"/><rect x="264" y="356" width="4" height="20" fill="#c9c6d6"/><rect x="271" y="356" width="2" height="20" fill="#c9c6d6"/><rect x="276" y="356" width="6" height="20" fill="#c9c6d6"/><rect x="285" y="356" width="3" height="20" fill="#c9c6d6"/><rect x="291" y="356" width="2" height="20" fill="#c9c6d6"/><rect x="296" y="356" width="5" height="20" fill="#c9c6d6"/><rect x="304" y="356" width="2" height="20" fill="#c9c6d6"/><rect x="309" y="356" width="3" height="20" fill="#c9c6d6"/><rect x="315" y="356" width="6" height="20" fill="#c9c6d6"/><rect x="324" y="356" width="2" height="20" fill="#c9c6d6"/><rect x="329" y="356" width="4" height="20" fill="#c9c6d6"/><rect x="336" y="356" width="2" height="20" fill="#c9c6d6"/>

  
    <rect x="26" y="414" width="338" height="76" rx="16" fill="#ffffff" stroke="#e7e4f0"/>
    <rect x="40" y="428" width="48" height="48" rx="12" fill="#00843D"/>
    <text x="64" y="460" font-family="Arial" font-size="22" font-weight="800" fill="#ffffff" text-anchor="middle">S</text>
    <text x="104" y="448" font-family="Arial" font-size="17" font-weight="700" fill="#1e1b2e">Starbucks</text>
    <text x="104" y="470" font-family="Arial" font-size="13" fill="#8b869c">Café</text>
    <rect x="240" y="444" width="3" height="20" fill="#c9c6d6"/><rect x="246" y="444" width="2" height="20" fill="#c9c6d6"/><rect x="251" y="444" width="5" height="20" fill="#c9c6d6"/><rect x="259" y="444" width="2" height="20" fill="#c9c6d6"/><rect x="264" y="444" width="4" height="20" fill="#c9c6d6"/><rect x="271" y="444" width="2" height="20" fill="#c9c6d6"/><rect x="276" y="444" width="6" height="20" fill="#c9c6d6"/><rect x="285" y="444" width="3" height="20" fill="#c9c6d6"/><rect x="291" y="444" width="2" height="20" fill="#c9c6d6"/><rect x="296" y="444" width="5" height="20" fill="#c9c6d6"/><rect x="304" y="444" width="2" height="20" fill="#c9c6d6"/><rect x="309" y="444" width="3" height="20" fill="#c9c6d6"/><rect x="315" y="444" width="6" height="20" fill="#c9c6d6"/><rect x="324" y="444" width="2" height="20" fill="#c9c6d6"/><rect x="329" y="444" width="4" height="20" fill="#c9c6d6"/><rect x="336" y="444" width="2" height="20" fill="#c9c6d6"/>
  
    <rect x="26" y="502" width="338" height="76" rx="16" fill="#ffffff" stroke="#e7e4f0"/>
    <rect x="40" y="516" width="48" height="48" rx="12" fill="#111111"/>
    <text x="64" y="548" font-family="Arial" font-size="22" font-weight="800" fill="#ffffff" text-anchor="middle">N</text>
    <text x="104" y="536" font-family="Arial" font-size="17" font-weight="700" fill="#1e1b2e">Nike</text>
    <text x="104" y="558" font-family="Arial" font-size="13" fill="#8b869c">Sports</text>
    <rect x="240" y="532" width="3" height="20" fill="#c9c6d6"/><rect x="246" y="532" width="2" height="20" fill="#c9c6d6"/><rect x="251" y="532" width="5" height="20" fill="#c9c6d6"/><rect x="259" y="532" width="2" height="20" fill="#c9c6d6"/><rect x="264" y="532" width="4" height="20" fill="#c9c6d6"/><rect x="271" y="532" width="2" height="20" fill="#c9c6d6"/><rect x="276" y="532" width="6" height="20" fill="#c9c6d6"/><rect x="285" y="532" width="3" height="20" fill="#c9c6d6"/><rect x="291" y="532" width="2" height="20" fill="#c9c6d6"/><rect x="296" y="532" width="5" height="20" fill="#c9c6d6"/><rect x="304" y="532" width="2" height="20" fill="#c9c6d6"/><rect x="309" y="532" width="3" height="20" fill="#c9c6d6"/><rect x="315" y="532" width="6" height="20" fill="#c9c6d6"/><rect x="324" y="532" width="2" height="20" fill="#c9c6d6"/><rect x="329" y="532" width="4" height="20" fill="#c9c6d6"/><rect x="336" y="532" width="2" height="20" fill="#c9c6d6"/>
  <circle cx="330" cy="774" r="30" fill="url(#brand)"/>
  <text x="330" y="784" font-family="Arial" font-size="34" font-weight="700" fill="#ffffff" text-anchor="middle">+</text>

    <!-- status bar -->
    <text x="34" y="44" font-family="Arial" font-size="15" font-weight="700" fill="#1e1b2e">9:41</text>
    <rect x="312" y="30" width="22" height="12" rx="3" fill="#1e1b2e"/>
    <rect x="340" y="30" width="16" height="12" rx="3" fill="#1e1b2e"/>
  </g>
  <rect x="135" y="26" width="120" height="26" rx="13" fill="#0b0b12"/>
  <rect x="140" y="818" width="110" height="5" rx="2.5" fill="#c8c8d0"/>
</svg>